HIERARCHY
ROOT Pelvis
{
	OFFSET 0.000000 0.000000 0.000000
	CHANNELS 6 Xposition Yposition Zposition Xrotation Yrotation Zrotation
	JOINT LeftUpLeg_virtual
	{
		OFFSET 0.000000 0.000000 0.000000
		CHANNELS 3 Xrotation Yrotation Zrotation
		JOINT LeftUpLeg
		{
			OFFSET 8.479700 -4.795502 -0.379100
			CHANNELS 3 Xrotation Yrotation Zrotation
			JOINT LeftLeg
			{
				OFFSET 0.024144 -32.555107 0.112900
				CHANNELS 3 Xrotation Yrotation Zrotation
				JOINT LeftFoot
				{
					OFFSET -0.024144 -32.638630 -3.012600
					CHANNELS 3 Xrotation Yrotation Zrotation
					JOINT LeftToeBase
					{
						OFFSET 0.970200 -13.225400 11.864200
						CHANNELS 3 Xrotation Yrotation Zrotation
						End Site
						{
							OFFSET 0 0 0
						}
					}
				}
			}
		}
	}
	JOINT RightUpLeg_virtual
	{
		OFFSET 0.000000 0.000000 0.000000
		CHANNELS 3 Xrotation Yrotation Zrotation
		JOINT RightUpLeg
		{
			OFFSET -8.479700 -4.795502 -0.379100
			CHANNELS 3 Xrotation Yrotation Zrotation
			JOINT RightLeg
			{
				OFFSET -0.023144 -32.555092 0.112900
				CHANNELS 3 Xrotation Yrotation Zrotation
				JOINT RightFoot
				{
					OFFSET 0.023144 -32.638641 -3.012700
					CHANNELS 3 Xrotation Yrotation Zrotation
					JOINT RightToeBase
					{
						OFFSET -0.970200 -13.225400 11.864200
						CHANNELS 3 Xrotation Yrotation Zrotation
						End Site
						{
							OFFSET 0 0 0
						}
					}
				}
			}
		}
	}
	JOINT Hips_virtual
	{
		OFFSET 0.000000 0.000000 0.000000
		CHANNELS 3 Xrotation Yrotation Zrotation
		JOINT Hips
		{
			OFFSET -0.000000 -0.000000 -0.000000
			CHANNELS 3 Xrotation Yrotation Zrotation
			JOINT Spine
			{
				OFFSET 0.000000 7.722000 1.166200
				CHANNELS 3 Xrotation Yrotation Zrotation
				JOINT Spine1
				{
					OFFSET 0.000000 12.024101 0.248800
					CHANNELS 3 Xrotation Yrotation Zrotation
					JOINT Spine2
					{
						OFFSET 0.000000 11.502998 -0.491200
						CHANNELS 3 Xrotation Yrotation Zrotation
						JOINT Neck_virtual
						{
							OFFSET 0.000000 0.000000 0.000000
							CHANNELS 3 Xrotation Yrotation Zrotation
							JOINT Neck
							{
								OFFSET 0.000000 18.430702 -3.123100
								CHANNELS 3 Xrotation Yrotation Zrotation
								JOINT Head
								{
									OFFSET 0.000000 9.051102 1.034000
									CHANNELS 3 Xrotation Yrotation Zrotation
									End Site
									{
										OFFSET 0 0 0
									}
								}
							}
						}
						JOINT LeftShoulder_virtual
						{
							OFFSET 0.000000 0.000000 0.000000
							CHANNELS 3 Xrotation Yrotation Zrotation
							JOINT LeftShoulder
							{
								OFFSET 6.197800 13.665199 -4.064700
								CHANNELS 3 Xrotation Yrotation Zrotation
								JOINT LeftArm
								{
									OFFSET 7.778100 -0.187103 -1.709300
									CHANNELS 3 Xrotation Yrotation Zrotation
									JOINT LeftForeArm
									{
										OFFSET 22.049376 0.000000 0.000000
										CHANNELS 3 Xrotation Yrotation Zrotation
										JOINT LeftHand
										{
											OFFSET 23.009392 0.000000 0.000000
											CHANNELS 3 Xrotation Yrotation Zrotation
											End Site
											{
												OFFSET 0 0 0
											}
										}
									}
								}
							}
						}
						JOINT RightShoulder_virtual
						{
							OFFSET 0.000000 0.000000 0.000000
							CHANNELS 3 Xrotation Yrotation Zrotation
							JOINT RightShoulder
							{
								OFFSET -6.197800 13.665199 -4.064700
								CHANNELS 3 Xrotation Yrotation Zrotation
								JOINT RightArm
								{
									OFFSET -7.778100 -0.187103 -1.709300
									CHANNELS 3 Xrotation Yrotation Zrotation
									JOINT RightForeArm
									{
										OFFSET -22.049376 0.000000 0.000000
										CHANNELS 3 Xrotation Yrotation Zrotation
										JOINT RightHand
										{
											OFFSET -23.009392 0.000000 0.000000
											CHANNELS 3 Xrotation Yrotation Zrotation
											End Site
											{
												OFFSET 0 0 0
											}
										}
									}
								}
							}
						}
					}
				}
			}
		}
	}
}
MOTION
Frames: 6
Frame Time: 0.03333333
-0.012993 79.273392 -0.205484 0.000000 0.000000 0.000000 1.512593 -26.749726 0.599320 -29.670045 25.530781 14.529861 26.710655 8.392812 10.424201 -1.093743 0.638917 -11.856536 0.000000 0.000000 0.000000 1.512593 -26.749726 0.599320 -20.310718 -16.530869 -9.223031 31.812344 -1.843195 -7.105328 -13.339566 -1.896107 10.880636 0.000000 0.000000 0.000000 1.512593 -26.749726 0.599320 0.000000 -0.000001 0.000000 4.045267 -1.419856 0.807402 1.509779 -0.573493 0.095187 0.000000 0.000000 0.000000 1.512356 -0.565976 0.098705 -2.627946 4.190005 2.862240 0.000000 0.000000 0.000000 1.512356 -0.565976 0.098705 -0.278003 3.012244 5.812622 -51.694167 -1.278265 -53.239084 0.001285 -85.822003 0.001318 0.000000 0.000000 0.000000 1.512356 -0.565976 0.098705 -1.118783 -11.889976 10.257416 -58.214693 66.009380 74.019935 -0.000044 83.646800 0.000042 0.000000 0.000000 0.000000 
-0.016188 79.272072 -0.200533 0.000000 0.000000 0.000000 1.528475 -26.749159 0.618665 -29.681355 25.556201 14.525330 26.712691 8.371908 10.424067 -1.099046 0.639968 -11.854072 0.000000 0.000000 0.000000 1.528475 -26.749159 0.618665 -20.344010 -16.608752 -9.234874 31.822869 -1.768248 -7.162478 -13.350225 -1.898347 10.888116 0.000000 0.000000 0.000000 1.528475 -26.749159 0.618665 0.000000 0.000000 0.000000 4.032306 -1.425968 0.810954 1.504778 -0.576866 0.097090 0.000000 0.000000 0.000000 1.507367 -0.569390 0.100619 -2.626393 4.193302 2.853711 0.000000 0.000000 0.000000 1.507367 -0.569390 0.100619 -0.279651 3.035679 5.768245 -51.680906 -1.342414 -53.222893 0.000022 -85.775893 -0.000000 0.000000 0.000000 0.000000 1.507367 -0.569390 0.100619 -1.120087 -11.901485 10.263996 -58.262203 66.059520 74.030071 -0.000124 83.625537 0.000177 0.000000 0.000000 0.000000 
-0.019087 79.270256 -0.195293 0.000000 0.000000 0.000000 1.545167 -26.745212 0.634666 -29.701955 25.587016 14.528562 26.722260 8.339459 10.423640 -1.108082 0.641179 -11.848991 0.000000 0.000000 0.000000 1.545167 -26.745212 0.634666 -20.377069 -16.692374 -9.243829 31.833056 -1.695683 -7.220980 -13.360827 -1.900614 10.896680 0.000000 0.000000 0.000000 1.545167 -26.745212 0.634666 0.000000 0.000001 0.000000 4.019834 -1.432666 0.814572 1.499958 -0.580344 0.099077 0.000000 0.000000 0.000000 1.502558 -0.572894 0.102616 -2.623186 4.196177 2.846583 0.000000 0.000000 0.000000 1.502558 -0.572894 0.102616 -0.280746 3.056237 5.722896 -51.672809 -1.406300 -53.202833 -0.000305 -85.730882 -0.000344 0.000000 0.000000 0.000000 1.502558 -0.572894 0.102616 -1.121293 -11.910755 10.267823 -58.301060 66.100535 74.036136 0.000573 83.610886 -0.000614 0.000000 0.000000 0.000000 
-0.021920 79.267982 -0.189846 0.000000 0.000000 0.000000 1.562244 -26.738884 0.647410 -29.731185 25.624479 14.539943 26.738657 8.295083 10.423031 -1.120480 0.642614 -11.841513 0.000000 0.000000 0.000000 1.562244 -26.738884 0.647410 -20.409727 -16.781594 -9.249732 31.842827 -1.625471 -7.281146 -13.371146 -1.902981 10.906153 0.000000 0.000000 0.000000 1.562244 -26.738884 0.647410 0.000000 -0.000001 0.000000 4.007884 -1.440171 0.818453 1.495333 -0.584008 0.101199 0.000000 0.000000 0.000000 1.497949 -0.576593 0.104755 -2.617658 4.198875 2.840608 0.000000 0.000000 0.000000 1.497949 -0.576593 0.104755 -0.281259 3.073343 5.677565 -51.670869 -1.468556 -53.178743 0.000761 -85.685338 0.000735 0.000000 0.000000 0.000000 1.497949 -0.576593 0.104755 -1.122339 -11.917107 10.268322 -58.332001 66.132733 74.039920 0.000149 83.601037 -0.000192 0.000000 0.000000 0.000000 
-0.024761 79.265472 -0.184464 0.000000 0.000000 0.000000 1.578781 -26.732565 0.658326 -29.766828 25.672536 14.558605 26.759937 8.237881 10.422543 -1.135604 0.644341 -11.831600 0.000000 0.000000 0.000000 1.578781 -26.732565 0.658326 -20.442097 -16.873861 -9.253897 31.852758 -1.557056 -7.342540 -13.381169 -1.905375 10.916060 0.000000 0.000000 0.000000 1.578781 -26.732565 0.658326 0.000000 -0.000002 0.000000 3.996470 -1.448659 0.822886 1.490911 -0.588000 0.103529 0.000000 0.000000 0.000000 1.493539 -0.580607 0.107103 -2.609243 4.201775 2.835401 0.000000 0.000000 0.000000 1.493539 -0.580607 0.107103 -0.281205 3.086704 5.633041 -51.676392 -1.528053 -53.150719 0.001266 -85.637533 0.001277 0.000000 0.000000 0.000000 1.493539 -0.580607 0.107103 -1.123203 -11.919761 10.264623 -58.356242 66.157014 74.043151 -0.000634 83.594118 0.000643 0.000000 0.000000 0.000000 
-0.027589 79.262917 -0.179510 0.000000 0.000000 0.000000 1.593372 -26.729269 0.667717 -29.806242 25.734032 14.584488 26.783470 8.168720 10.421941 -1.151935 0.647550 -11.819018 0.000000 0.000000 0.000000 1.593372 -26.729269 0.667717 -20.473128 -16.965157 -9.256741 31.862556 -1.489813 -7.403492 -13.390191 -1.907887 10.925334 0.000000 0.000000 0.000000 1.593372 -26.729269 0.667717 0.000000 0.000000 0.000000 3.985464 -1.458313 0.828039 1.486643 -0.592416 0.106145 0.000000 0.000000 0.000000 1.489282 -0.585010 0.109741 -2.597503 4.205266 2.830449 0.000000 0.000000 0.000000 1.489282 -0.585010 0.109741 -0.280619 3.096290 5.589871 -51.690592 -1.583860 -53.118849 -0.000573 -85.585453 -0.000545 0.000000 0.000000 0.000000 1.489282 -0.585010 0.109741 -1.123878 -11.917868 10.255499 -58.375810 66.174711 74.048034 -0.000100 83.587787 0.000088 0.000000 0.000000 0.000000 
